<?xml version="1.0" encoding="UTF-8" standalone="no"?>
<!DOCTYPE svg PUBLIC "-//W3C//DTD SVG 1.1//EN" "http://www.w3.org/Graphics/SVG/1.1/DTD/svg11.dtd">
<svg version="1.1" xmlns="http://www.w3.org/2000/svg" xmlns:xlink="http://www.w3.org/1999/xlink" preserveAspectRatio="xMidYMid meet" viewBox="0 0 640 640" width="640" height="640"><defs><path d="M12 6C5.4 6 0 11.4 0 18C0 24.6 5.4 30 12 30C22 30 102 30 112 30C118.6 30 124 24.6 124 18C124 11.4 118.6 6 112 6C92 6 22 6 12 6Z" id="aEF3j4iSE"></path><path d="M12 50C5.4 50 0 55.4 0 62C0 68.6 5.4 74 12 74C22 74 102 74 112 74C118.6 74 124 68.6 124 62C124 55.4 118.6 50 112 50C92 50 22 50 12 50Z" id="d2eTunfAfa"></path><path d="M12 94C5.4 94 0 99.4 0 106C0 112.6 5.4 118 12 118C22 118 102 118 112 118C118.6 118 124 112.6 124 106C124 99.4 118.6 94 112 94C92 94 22 94 12 94Z" id="a59yGnbMGU"></path></defs><g><g><g><use xlink:href="#aEF3j4iSE" opacity="1" fill="#ffffff" fill-opacity="1"></use><g><use xlink:href="#aEF3j4iSE" opacity="1" fill-opacity="0" stroke="#000000" stroke-width="1" stroke-opacity="0"></use></g></g><g><use xlink:href="#d2eTunfAfa" opacity="1" fill="#ffffff" fill-opacity="1"></use><g><use xlink:href="#d2eTunfAfa" opacity="1" fill-opacity="0" stroke="#000000" stroke-width="1" stroke-opacity="0"></use></g></g><g><use xlink:href="#a59yGnbMGU" opacity="1" fill="#ffffff" fill-opacity="1"></use><g><use xlink:href="#a59yGnbMGU" opacity="1" fill-opacity="0" stroke="#000000" stroke-width="1" stroke-opacity="0"></use></g></g></g></g></svg>